<svg width="64" height="64" viewBox="0 0 64 64" fill="none" xmlns="http://www.w3.org/2000/svg">
<g clip-path="url(#clip0_1303_180)">
<path d="M22.4273 21.0572C22.4273 21.0572 23.8753 15.2441 20.8516 11.7307C17.828 8.21726 16.6142 7.49328 13.3457 7.97238C10.0772 8.45148 6.44665 9.18611 4.38119 11.9649C2.31574 14.7437 -0.218178 21.4085 0.516444 29.5852C1.25107 37.7618 1.96439 42.6061 6.44665 45.8746C10.9289 49.1432 23.524 54.4665 28.3576 54.9562C33.2018 55.4353 36.3532 57.0111 41.4317 55.5631C46.5208 54.1152 53.6647 46.8435 57.1675 40.7961C60.6703 34.7488 64.1943 22.6329 63.0977 18.2784C62.0118 13.9239 61.2771 12.955 57.4017 11.9862C53.5263 11.0173 48.3414 12.2098 45.7968 14.7543C43.2523 17.2989 41.0697 21.4192 41.0697 21.4192C41.0697 21.4192 45.4349 12.9444 38.77 9.67585C32.1052 6.40732 24.0031 12.8166 22.4273 21.0572Z" fill="#F18EC4"/>
<circle cx="22.0795" cy="37.1196" r="0.85199" fill="#4E223E"/>
<path d="M24.8369 34.9541C24.8369 33.3226 26.1595 32 27.791 32C29.4225 32 30.7451 33.3226 30.7451 34.9541" stroke="#4E223E" stroke-linecap="round"/>
<path d="M13.8946 34.9541C13.8946 33.3226 15.2171 32 16.8486 32C18.4801 32 19.8027 33.3226 19.8027 34.9541" stroke="#4E223E" stroke-linecap="round"/>
<path d="M24.8366 39.2852C24.8366 40.3843 23.6024 41.2753 22.0799 41.2753C20.5575 41.2753 19.3232 40.3843 19.3232 39.2852" stroke="#4E223E" stroke-linecap="round"/>
</g>
<defs>
<clipPath id="clip0_1303_180">
<rect width="64" height="64" fill="white"/>
</clipPath>
</defs>
</svg>
