<svg width="95" height="122" viewBox="0 0 95 122" fill="none" xmlns="http://www.w3.org/2000/svg"><path d="M92.9129 25.2361C101.463 62.4718 81.6594 113.774 48.23 120.946C45.3063 121.552 36.1491 123.428 26.716 119.125C2.44387 108.092 -8.97508 63.4648 8.29126 33.5659C24.4543 5.59772 65.055 -8.08295 82.6523 4.99092C89.272 9.95568 91.1476 17.5683 92.9129 25.2361Z" fill="#B7703A"/><circle cx="53.2461" cy="55.7891" r="2" fill="#4E223E"/><circle cx="65.2666" cy="55.7891" r="2" fill="#4E223E"/><path d="M49.1406 35.4939L58.0831 47.6309C58.9207 48.7678 60.6408 48.702 61.3892 47.5046L69.3733 34.7305" stroke="#4E223E" stroke-width="3" stroke-linecap="round"/><path d="M52.7852 69.833C52.7852 67.2528 55.6824 65.1612 59.2563 65.1612C62.8303 65.1612 65.7275 67.2528 65.7275 69.833" stroke="#4E223E" stroke-width="3" stroke-linecap="round"/></svg>
