<svg width="169" height="175" viewBox="0 0 169 175" fill="none" xmlns="http://www.w3.org/2000/svg"><path d="M81.0414 0.0113646C79.6887 0.158394 78.8947 1.92275 74.0133 20.772C71.3668 30.9464 68.9261 40.6798 68.6909 40.6504C68.6909 40.6504 68.6614 40.621 68.6614 40.5328C68.6614 39.1801 64.9857 36.5042 53.6056 28.4763C42.2255 20.4485 38.8732 14.7437 38.1969 16.4199C37.5205 18.096 44.2251 33.8282 46.5776 40.5328C48.9301 47.2373 54.6054 61.9403 54.6054 61.9403C54.6054 61.9403 40.5494 63.293 32.845 65.2926C25.1406 67.2922 -0.971859 69.6153 0.027944 73.6439C1.02775 77.6725 22.7882 87.0236 30.4925 91.7285C38.1969 96.4335 49.2241 99.4329 49.2241 99.4329C49.2241 99.4329 34.4917 113.812 28.4635 121.87C22.4353 129.897 12.055 145.63 15.7307 144.306C19.4065 142.983 69.279 123.546 81.012 117.194C81.012 117.194 84.3642 148.658 86.0404 159.362C87.7165 170.066 88.04 177.77 92.7449 172.095C97.4499 166.42 105.801 135.955 108.801 129.574C111.8 123.222 117.828 105.814 117.828 105.814C117.828 105.814 133.237 113.842 142.941 117.87C152.645 121.899 167.377 132.926 168.701 129.927C170.053 126.927 149.616 99.4623 144.94 91.7579C140.265 84.0536 127.885 66.3218 127.885 66.3218C127.885 66.3218 151.998 31.858 155.674 20.8014C155.938 20.0074 156.232 18.8312 155.615 18.0666C153.321 15.0966 140.971 21.8306 119.181 31.1817C111.624 34.4163 105.537 36.857 102.125 38.2097C100.008 34.2105 96.6853 27.8 92.7449 19.8016C85.5405 5.09859 83.5115 -0.282695 81.0414 0.0113646Z" fill="#B7703A"/><path d="M71.6338 81.9066H83.1592L74.8033 73.5508" stroke="#4E223E" stroke-width="3" stroke-linecap="round"/><path d="M106.244 81.9066H94.7188L103.075 73.5508" stroke="#4E223E" stroke-width="3" stroke-linecap="round"/></svg>
