<svg width="116" height="121" viewBox="0 0 116 121" fill="none" xmlns="http://www.w3.org/2000/svg"><path d="M25.0547 118.264C11.9422 113.573 6.07893 101.953 4.53315 98.8614C-4.04857 81.9112 1.60151 64.3746 4.85297 54.4603C9.17049 41.188 15.8866 32.4463 19.1914 28.2887C23.882 22.3188 32.0373 11.9248 44.9898 5.79505C71.5345 -6.83768 108.153 2.91669 113.963 18.4278C114.763 20.6132 115.936 25.517 115.136 31.1671C115.136 31.1671 113.963 39.2158 108.207 45.9319C94.6146 61.7095 67.3769 52.115 62.8462 62.6689C60.1278 68.9586 69.4024 73.6493 69.4024 89.5868C69.4024 93.4779 69.4024 100.194 65.618 106.377C58.1556 118.477 39.6063 123.541 25.0547 118.264Z" fill="#90A3B4"/><circle cx="79.9863" cy="36.4463" r="2" fill="#4E223E"/><circle cx="92.0068" cy="36.4463" r="2" fill="#4E223E"/></svg>
