<svg width="148" height="114" viewBox="0 0 148 114" fill="none" xmlns="http://www.w3.org/2000/svg"><path d="M51.7392 31.027C51.7392 31.027 55.1382 17.381 48.0403 9.1335C40.9424 0.885955 38.0933 -0.813537 30.4205 0.311128C22.7478 1.43579 14.2254 3.16028 9.37682 9.68333C4.52826 16.2064 -1.41996 31.8517 0.304522 51.046C2.02901 70.2403 3.70351 81.6119 14.2254 89.2846C24.7472 96.9573 54.3134 109.454 65.66 110.603C77.0317 111.728 84.4294 115.427 96.3509 112.028C108.297 108.629 125.067 91.5589 133.29 77.3632C141.512 63.1674 149.785 34.7259 147.211 24.5039C144.661 14.282 142.937 12.0076 133.84 9.73332C124.742 7.459 112.571 10.2582 106.598 16.2314C100.625 22.2046 95.5011 31.8767 95.5011 31.8767C95.5011 31.8767 105.748 11.9826 90.1027 4.30994C74.4574 -3.36278 55.4381 11.6827 51.7392 31.027Z" fill="#F18EC4"/><circle cx="50.9229" cy="68.7334" r="2" fill="#4E223E"/><path d="M57.3936 63.6504C57.3936 59.8205 60.4983 56.7158 64.3281 56.7158C68.158 56.7158 71.2627 59.8205 71.2627 63.6504" stroke="#4E223E" stroke-width="3" stroke-linecap="round"/><path d="M31.707 63.6504C31.707 59.8205 34.8117 56.7158 38.6416 56.7158C42.4715 56.7158 45.5762 59.8205 45.5762 63.6504" stroke="#4E223E" stroke-width="3" stroke-linecap="round"/><path d="M57.3936 73.8164C57.3936 76.3966 54.4963 78.4882 50.9224 78.4882C47.3484 78.4882 44.4512 76.3966 44.4512 73.8164" stroke="#4E223E" stroke-width="3" stroke-linecap="round"/></svg>
