<svg width="128" height="140" viewBox="0 0 128 140" fill="none" xmlns="http://www.w3.org/2000/svg"><path d="M127.286 61.9921C130.782 100.054 99.9581 138.609 67.7554 139.151C38.2116 139.643 16.2015 107.982 13.0502 103.55C9.60343 98.5771 4.23631 90.748 1.57737 79.0782C0.691052 75.1391 -5.7101 44.9059 15.7091 21.0247C31.2689 3.64312 55.1501 -3.25043 76.4708 1.42733C106.556 8.07468 124.923 36.289 127.286 61.9921Z" fill="#F18EC4"/><circle cx="49.1113" cy="52.249" r="2" fill="#4E223E"/><circle cx="78.4463" cy="52.249" r="2" fill="#4E223E"/><path d="M63.7793 59.2041C70.0396 59.2043 74.9463 63.9391 74.9463 69.5781C74.946 75.2169 70.0394 79.9509 63.7793 79.9512C57.5189 79.9512 52.6116 75.2171 52.6113 69.5781C52.6113 63.939 57.5187 59.2041 63.7793 59.2041Z" stroke="#4E223E" stroke-width="3"/></svg>
