<svg width="111" height="125" viewBox="0 0 111 125" fill="none" xmlns="http://www.w3.org/2000/svg"><path d="M109.618 42.111C117.177 75.7358 89.1304 102.271 86.5759 104.564C83.0831 107.744 56.6004 131.986 30.9517 122.706C0.871906 111.759 0.142067 64.6839 0.0378045 57.5419C-0.11859 46.6986 -0.431377 26.7844 13.8005 13.1781C24.5396 2.90822 38.198 1.50067 46.2784 0.61444C53.8374 -0.167531 72.7611 -2.20065 89.5474 10.4151C104.301 21.5713 108.523 37.4192 109.618 42.111Z" fill="#838E4B"/><circle cx="40.7861" cy="62.2324" r="2" fill="#4E223E"/><circle cx="70.1211" cy="62.2324" r="2" fill="#4E223E"/><path d="M65.8721 76.9114L56.9296 64.7744C56.092 63.6375 54.3719 63.7032 53.6235 64.9007L45.6394 77.6748" stroke="#4E223E" stroke-width="3" stroke-linecap="round"/></svg>
