<svg width="153" height="105" viewBox="0 0 153 105" fill="none" xmlns="http://www.w3.org/2000/svg"><path d="M150.066 34.1526C158.666 56.5526 146.466 85.4526 125.766 98.0526C109.166 108.053 91.6656 104.753 75.7656 101.653C46.5656 95.9526 1.96562 76.0526 0.0656219 44.9526C-0.634378 33.7526 4.46561 25.2526 5.86561 23.0526C23.3656 -5.24739 71.4656 -0.0473958 82.2656 1.1526C104.666 3.4526 139.766 7.2526 150.066 34.1526Z" fill="#90A3B4"/><path d="M92.877 48.916C92.877 52.7459 89.7722 55.8506 85.9424 55.8506C82.1125 55.8506 79.0078 52.7459 79.0078 48.916" stroke="#4E223E" stroke-width="3" stroke-linecap="round"/><path d="M118.563 48.916C118.563 52.7459 115.459 55.8506 111.629 55.8506C107.799 55.8506 104.694 52.7459 104.694 48.916" stroke="#4E223E" stroke-width="3" stroke-linecap="round"/></svg>
